<svg width="22" height="18" viewBox="0 0 22 18" fill="none" xmlns="http://www.w3.org/2000/svg">
<path d="M12.1428 11.7057H2.4384L5.50487 8.63927C5.77895 8.35554 5.77105 7.90332 5.48732 7.62924C5.21049 7.36191 4.77167 7.36191 4.4949 7.62924L0.209132 11.915C-0.0697107 12.1939 -0.0697107 12.6461 0.209132 12.925L4.4949 17.2108C4.77863 17.4849 5.23084 17.4771 5.50493 17.1933C5.77233 16.9164 5.77233 16.4776 5.50493 16.2008L2.43847 13.1343H12.1428C12.5373 13.1343 12.8572 12.8145 12.8572 12.42C12.8572 12.0255 12.5373 11.7057 12.1428 11.7057Z" fill="white"/>
<path d="M17.3623 0.200543C17.0785 -0.0735452 16.6263 -0.0657102 16.3522 0.218088C16.0849 0.494923 16.0849 0.933746 16.3522 1.21058L19.4187 4.27705H9.71432C9.31983 4.27705 9 4.59688 9 4.99137C9 5.38586 9.31983 5.70569 9.71432 5.70569H19.4187L16.3522 8.77216C16.0685 9.04625 16.0607 9.49839 16.3347 9.78219C16.6087 10.066 17.0609 10.0738 17.3447 9.79974C17.3507 9.79398 17.3565 9.78815 17.3623 9.78219L21.6481 5.49642C21.9269 5.21751 21.9269 4.76536 21.6481 4.48638L17.3623 0.200543Z" fill="white"/>
</svg>
