<svg width="62" height="33" viewBox="0 0 62 33" fill="none" xmlns="http://www.w3.org/2000/svg">
<path d="M45.9261 0C42.1375 0 37.7492 2.09856 32.5104 6.41543C32.0137 6.82484 31.5087 7.25473 30.9999 7.7012C30.4912 7.2546 29.9861 6.82484 29.4894 6.41543C24.2507 2.09843 19.8624 0 16.0737 0C7.21065 0 0 7.21077 0 16.0739C0 24.937 7.21065 32.1476 16.0739 32.1476C19.8625 32.1476 24.2508 30.049 29.4896 25.7322C29.9863 25.3228 30.4913 24.8929 31.0001 24.4464C31.5088 24.893 32.0139 25.3228 32.5106 25.7322C37.7494 30.049 42.1377 32.1476 45.9263 32.1476C54.7894 32.1477 62 24.937 62 16.0739C62 7.21077 54.7893 0 45.9261 0ZM45.9261 28.5594C43.0447 28.5594 39.2988 26.6765 34.7925 22.963C33.9616 22.2783 24.8461 13.4022 24.1155 12.8022C19.2185 8.78063 16.8604 8.34639 16.0739 8.34639C11.8128 8.34639 8.34639 11.8128 8.34639 16.0739C8.34639 20.3349 11.8129 23.8013 16.0739 23.8013C16.8661 23.8013 19.2419 23.3619 24.1817 19.2912C24.4722 19.0518 24.7671 18.802 25.0636 18.5468L28.4029 21.9497C28.0003 22.2997 27.6008 22.639 27.2076 22.963C22.7012 26.6763 18.9553 28.5594 16.0739 28.5594C9.18932 28.5594 3.58837 22.9584 3.58837 16.0739C3.58837 9.18932 9.18932 3.58825 16.0739 3.58825C18.9553 3.58825 22.7012 5.47114 27.2075 9.18472C28.0384 9.86938 35.6409 17.4007 35.6409 17.4007C36.3754 18.0696 37.1078 18.7057 37.8183 19.2912C42.7581 23.3619 45.1341 23.8013 45.9263 23.8013C50.1872 23.8013 53.6537 20.3349 53.6537 16.0739C53.6537 11.8128 50.1872 8.34639 45.9263 8.34639C45.1398 8.34639 42.7816 8.78051 37.8845 12.8022C37.5725 13.0584 37.2555 13.3265 36.9361 13.6014L33.5971 10.1982C33.9997 9.84819 34.3992 9.50889 34.7925 9.18472C39.2989 5.47126 43.0448 3.58825 45.9263 3.58825C52.8108 3.58825 58.4118 9.1892 58.4118 16.0739C58.4118 22.9584 52.8107 28.5594 45.9261 28.5594ZM22.4355 16.0739C22.2556 16.2266 22.0768 16.376 21.8997 16.5219C18.035 19.7067 16.2464 20.1615 15.9956 20.2122C13.7491 20.1706 11.9345 18.3301 11.9345 16.0737C11.9345 13.8174 13.7491 11.977 15.9956 11.9352C16.2455 11.9859 18.0164 12.4364 21.838 15.575C22.0353 15.7372 22.2346 15.9035 22.4355 16.0739ZM39.5645 16.0739C39.7654 15.9036 39.9647 15.7371 40.1618 15.5751C43.9836 12.4366 45.7545 11.986 46.0044 11.9354C48.2509 11.977 50.0654 13.8176 50.0654 16.0739C50.0654 18.3301 48.2508 20.1706 46.0042 20.2124C45.7535 20.1615 43.9649 19.7067 40.1003 16.522C39.9232 16.3761 39.7444 16.2266 39.5645 16.0739Z" fill="url(#paint0_linear)"/>
<defs>
<linearGradient id="paint0_linear" x1="7.01009e-07" y1="-34.0959" x2="77.6054" y2="8.62652" gradientUnits="userSpaceOnUse">
<stop stop-color="#8834A2"/>
<stop offset="1" stop-color="#D9226E"/>
</linearGradient>
</defs>
</svg>
