<svg width="24" height="24" viewBox="0 0 24 24" fill="none" xmlns="http://www.w3.org/2000/svg">
<path d="M12.0156 24C9.94763 24 8.26562 22.318 8.26562 20.25C8.26562 19.836 8.60162 19.5 9.01563 19.5C9.42963 19.5 9.76563 19.836 9.76563 20.25C9.76563 21.4911 10.7747 22.5 12.0156 22.5C13.2567 22.5 14.2656 21.4911 14.2656 20.25C14.2656 19.836 14.6016 19.5 15.0156 19.5C15.4296 19.5 15.7656 19.836 15.7656 20.25C15.7656 22.318 14.0836 24 12.0156 24Z" fill="#8834A2"/>
<path d="M20.2656 21H3.76556C2.8006 21 2.01562 20.215 2.01562 19.2501C2.01562 18.7379 2.23865 18.2531 2.62756 17.92C4.14862 16.6349 5.01562 14.7671 5.01562 12.7881V9.99994C5.01562 6.14008 8.1557 3 12.0156 3C15.8756 3 19.0157 6.14008 19.0157 9.99994V12.7881C19.0157 14.7671 19.8827 16.6349 21.3937 17.913C21.7927 18.2531 22.0157 18.7379 22.0157 19.2501C22.0157 20.215 21.2307 21 20.2656 21ZM12.0156 4.5C8.9826 4.5 6.51562 6.96698 6.51562 9.99994V12.7881C6.51562 15.2089 5.45471 17.495 3.60571 19.058C3.57056 19.088 3.51562 19.1501 3.51562 19.2501C3.51562 19.3859 3.6297 19.5 3.76556 19.5H20.2656C20.4016 19.5 20.5157 19.3859 20.5157 19.2501C20.5157 19.1501 20.4606 19.088 20.4276 19.06C18.5766 17.495 17.5157 15.2089 17.5157 12.7881V9.99994C17.5157 6.96698 15.0487 4.5 12.0156 4.5Z" fill="#8834A2"/>
<path d="M12.0156 4.5C11.6016 4.5 11.2656 4.164 11.2656 3.75V0.75C11.2656 0.335999 11.6016 0 12.0156 0C12.4296 0 12.7656 0.335999 12.7656 0.75V3.75C12.7656 4.164 12.4296 4.5 12.0156 4.5Z" fill="#8834A2"/>
</svg>
