<svg width="72" height="72" viewBox="0 0 72 72" fill="none" xmlns="http://www.w3.org/2000/svg">
<path d="M43.0871 36.3671C42.6757 35.9556 42.0077 35.9556 41.5957 36.3681C41.1843 36.7801 41.1843 37.4481 41.5968 37.8595L57.043 53.2926C57.2413 53.4909 57.51 53.6008 57.7885 53.6008C57.8126 53.6008 57.8368 53.6002 57.861 53.5986C58.1653 53.5771 58.4454 53.4255 58.6295 53.1827C62.3758 48.2328 64.3561 42.3293 64.3561 36.1094C64.3561 28.987 61.7012 22.1788 56.8793 16.9394C52.0871 11.7319 45.5799 8.51891 38.5552 7.89159C37.973 7.83885 37.4627 8.26842 37.4105 8.8485C37.3588 9.42857 37.7873 9.94109 38.3674 9.99272C44.8685 10.5728 50.8912 13.5473 55.327 18.3676C59.7891 23.217 62.2467 29.5182 62.2467 36.11C62.2467 41.4592 60.6647 46.5552 57.6583 50.925L43.0871 36.3671Z" fill="white"/>
<path d="M43.0871 36.3671C42.6757 35.9556 42.0077 35.9556 41.5957 36.3681C41.1843 36.7801 41.1843 37.4481 41.5968 37.8595L57.043 53.2926C57.2413 53.4909 57.51 53.6008 57.7885 53.6008C57.8126 53.6008 57.8368 53.6002 57.861 53.5986C58.1653 53.5771 58.4454 53.4255 58.6295 53.1827C62.3758 48.2328 64.3561 42.3293 64.3561 36.1094C64.3561 28.987 61.7012 22.1788 56.8793 16.9394C52.0871 11.7319 45.5799 8.51891 38.5552 7.89159C37.973 7.83885 37.4627 8.26842 37.4105 8.8485C37.3588 9.42857 37.7873 9.94109 38.3674 9.99272C44.8685 10.5728 50.8912 13.5473 55.327 18.3676C59.7891 23.217 62.2467 29.5182 62.2467 36.11C62.2467 41.4592 60.6647 46.5552 57.6583 50.925L43.0871 36.3671Z" fill="url(#paint0_linear)"/>
<path d="M34.5899 8.84833C34.5378 8.26826 34.0241 7.83979 33.4452 7.89142C28.1701 8.36274 23.1455 10.3018 18.913 13.4994C18.6696 13.6834 18.518 13.9636 18.4966 14.2684C18.4757 14.5728 18.5878 14.8716 18.8037 15.0869L38.122 34.3883C38.328 34.5942 38.5977 34.697 38.8675 34.697C39.1377 34.697 39.4074 34.5937 39.6134 34.3877C40.0254 33.9757 40.0249 33.3077 39.6129 32.8963L21.1723 14.4717C24.8725 11.9355 29.1555 10.3925 33.633 9.99256C34.2131 9.94092 34.6416 9.42841 34.5899 8.84833Z" fill="white"/>
<path d="M34.5899 8.84833C34.5378 8.26826 34.0241 7.83979 33.4452 7.89142C28.1701 8.36274 23.1455 10.3018 18.913 13.4994C18.6696 13.6834 18.518 13.9636 18.4966 14.2684C18.4757 14.5728 18.5878 14.8716 18.8037 15.0869L38.122 34.3883C38.328 34.5942 38.5977 34.697 38.8675 34.697C39.1377 34.697 39.4074 34.5937 39.6134 34.3877C40.0254 33.9757 40.0249 33.3077 39.6129 32.8963L21.1723 14.4717C24.8725 11.9355 29.1555 10.3925 33.633 9.99256C34.2131 9.94092 34.6416 9.42841 34.5899 8.84833Z" fill="url(#paint1_linear)"/>
<path d="M14.0781 18.6983C13.7738 18.7203 13.4931 18.8724 13.3096 19.1169C9.60339 24.0497 7.64453 29.9258 7.64453 36.11C7.64453 51.732 20.3651 64.4415 36.0002 64.4415C42.1894 64.4415 48.0698 62.4843 53.0071 58.7819C53.2515 58.5979 53.4042 58.3172 53.4262 58.0123C53.4476 57.7075 53.3356 57.4081 53.1191 57.1916L14.8983 19.0043C14.6824 18.7884 14.3835 18.6774 14.0781 18.6983ZM36.0002 62.3321C21.528 62.3321 9.75391 50.5691 9.75391 36.11C9.75391 30.7953 11.3173 25.7262 14.2863 21.3746L50.7477 57.8041C46.3922 60.7704 41.3198 62.3321 36.0002 62.3321Z" fill="white"/>
<path d="M14.0781 18.6983C13.7738 18.7203 13.4931 18.8724 13.3096 19.1169C9.60339 24.0497 7.64453 29.9258 7.64453 36.11C7.64453 51.732 20.3651 64.4415 36.0002 64.4415C42.1894 64.4415 48.0698 62.4843 53.0071 58.7819C53.2515 58.5979 53.4042 58.3172 53.4262 58.0123C53.4476 57.7075 53.3356 57.4081 53.1191 57.1916L14.8983 19.0043C14.6824 18.7884 14.3835 18.6774 14.0781 18.6983ZM36.0002 62.3321C21.528 62.3321 9.75391 50.5691 9.75391 36.11C9.75391 30.7953 11.3173 25.7262 14.2863 21.3746L50.7477 57.8041C46.3922 60.7704 41.3198 62.3321 36.0002 62.3321Z" fill="url(#paint2_linear)"/>
<path d="M61.4559 10.6754C54.6559 3.88202 45.6158 0.140625 36 0.140625C26.3842 0.140625 17.3441 3.88202 10.5441 10.6754C3.74469 17.4694 0 26.5018 0 36.1099C0 45.2763 3.45245 54.0071 9.7207 60.6934C15.9587 67.3478 24.3918 71.36 33.466 71.9912C34.0472 72.0297 34.5509 71.593 34.591 71.0118C34.6317 70.4306 34.1933 69.9269 33.6121 69.8868C25.0708 69.293 17.1326 65.5159 11.2593 59.2509C5.35913 52.9568 2.10938 44.7385 2.10938 36.1099C2.10938 27.0659 5.63434 18.563 12.0355 12.1674C18.4367 5.77222 26.9473 2.25 36 2.25C45.0527 2.25 53.5633 5.77222 59.9645 12.1674C66.3657 18.563 69.8906 27.0659 69.8906 36.1099C69.8906 44.7385 66.6409 52.9568 60.7407 59.2509C54.8674 65.5159 46.9292 69.293 38.3879 69.8868C37.8067 69.9274 37.3683 70.4312 37.409 71.0123C37.4474 71.5682 37.9105 71.9934 38.4598 71.9934C38.4846 71.9934 38.5093 71.9929 38.534 71.9912C47.6082 71.36 56.0413 67.3478 62.2793 60.6934C68.5475 54.0071 72 45.2763 72 36.1099C72 26.5018 68.2553 17.4694 61.4559 10.6754Z" fill="white"/>
<path d="M61.4559 10.6754C54.6559 3.88202 45.6158 0.140625 36 0.140625C26.3842 0.140625 17.3441 3.88202 10.5441 10.6754C3.74469 17.4694 0 26.5018 0 36.1099C0 45.2763 3.45245 54.0071 9.7207 60.6934C15.9587 67.3478 24.3918 71.36 33.466 71.9912C34.0472 72.0297 34.5509 71.593 34.591 71.0118C34.6317 70.4306 34.1933 69.9269 33.6121 69.8868C25.0708 69.293 17.1326 65.5159 11.2593 59.2509C5.35913 52.9568 2.10938 44.7385 2.10938 36.1099C2.10938 27.0659 5.63434 18.563 12.0355 12.1674C18.4367 5.77222 26.9473 2.25 36 2.25C45.0527 2.25 53.5633 5.77222 59.9645 12.1674C66.3657 18.563 69.8906 27.0659 69.8906 36.1099C69.8906 44.7385 66.6409 52.9568 60.7407 59.2509C54.8674 65.5159 46.9292 69.293 38.3879 69.8868C37.8067 69.9274 37.3683 70.4312 37.409 71.0123C37.4474 71.5682 37.9105 71.9934 38.4598 71.9934C38.4846 71.9934 38.5093 71.9929 38.534 71.9912C47.6082 71.36 56.0413 67.3478 62.2793 60.6934C68.5475 54.0071 72 45.2763 72 36.1099C72 26.5018 68.2553 17.4694 61.4559 10.6754Z" fill="url(#paint3_linear)"/>
<defs>
<linearGradient id="paint0_linear" x1="33.732" y1="47.6541" x2="76.2562" y2="21.3801" gradientUnits="userSpaceOnUse">
<stop offset="0.22487" stop-color="#1A237E"/>
<stop offset="0.64815" stop-color="#673AB7"/>
<stop offset="1" stop-color="#E91E63"/>
</linearGradient>
<linearGradient id="paint1_linear" x1="15.5728" y1="31.2094" x2="43.0273" y2="8.21182" gradientUnits="userSpaceOnUse">
<stop offset="0.22487" stop-color="#1A237E"/>
<stop offset="0.64815" stop-color="#673AB7"/>
<stop offset="1" stop-color="#E91E63"/>
</linearGradient>
<linearGradient id="paint2_linear" x1="1.40253" y1="58.4907" x2="48.9312" y2="8.63664" gradientUnits="userSpaceOnUse">
<stop offset="0.22487" stop-color="#1A237E"/>
<stop offset="0.64815" stop-color="#673AB7"/>
<stop offset="1" stop-color="#E91E63"/>
</linearGradient>
<linearGradient id="paint3_linear" x1="-9.81612" y1="62.6465" x2="64.833" y2="-15.749" gradientUnits="userSpaceOnUse">
<stop offset="0.22487" stop-color="#1A237E"/>
<stop offset="0.64815" stop-color="#673AB7"/>
<stop offset="1" stop-color="#E91E63"/>
</linearGradient>
</defs>
</svg>
