<svg width="16" height="16" viewBox="0 0 16 16" fill="none" xmlns="http://www.w3.org/2000/svg">
<path d="M14.7732 0H5.92898C5.29865 0 4.78589 0.5128 4.78589 1.1431V3.82602H5.82937V1.1431C5.82937 1.08817 5.87406 1.04348 5.92898 1.04348H14.7732C14.8281 1.04348 14.8728 1.08817 14.8728 1.1431V9.98734C14.8728 10.0423 14.8281 10.087 14.7732 10.087H12.174V11.1305H14.7732C15.4035 11.1305 15.9163 10.6177 15.9163 9.98734V1.1431C15.9163 0.5128 15.4035 0 14.7732 0Z" fill="#673BB7"/>
<path d="M9.98734 4.86949H1.14313C0.5128 4.86949 0 5.38229 0 6.01262V14.8569C3.47826e-05 15.4872 0.5128 16 1.14313 16H9.98737C10.6177 16 11.1305 15.4872 11.1305 14.8569V6.01262C11.1305 5.38229 10.6177 4.86949 9.98734 4.86949ZM9.98741 14.9565H1.14313C1.08817 14.9565 1.04348 14.9118 1.04348 14.8569V6.01262C1.04348 5.95767 1.08817 5.91297 1.14313 5.91297H9.98737C10.0423 5.91297 10.087 5.95767 10.087 6.01262V14.8569H10.0871C10.0871 14.9118 10.0423 14.9565 9.98741 14.9565Z" fill="#673BB7"/>
</svg>
