<svg width="30" height="34" viewBox="0 0 30 34" fill="none" xmlns="http://www.w3.org/2000/svg">
<path d="M29.998 16.7359C30.1409 26.2302 22.556 34 13.2131 34H0V33.9999C-2.23009e-06 33.5093 0.0954068 33.0236 0.280781 32.5704C0.466155 32.1172 0.737864 31.7054 1.08039 31.3585C1.42292 31.0117 1.82956 30.7365 2.27709 30.5488C2.72462 30.3611 3.20429 30.2645 3.68869 30.2645H13.2131C14.9539 30.2625 16.6769 29.9095 18.2816 29.2261C19.8863 28.5426 21.3406 27.5425 22.5596 26.2839C23.7786 25.0254 24.738 23.5336 25.3817 21.8956C26.0254 20.2576 26.3406 18.5063 26.3089 16.7436C26.1728 9.48161 20.1655 3.7354 12.9931 3.7354H3.68869C3.20429 3.73541 2.72463 3.6388 2.27709 3.45108C1.82956 3.26337 1.42292 2.98822 1.08039 2.64136C0.737867 2.29449 0.466159 1.8827 0.280784 1.42949C0.0954098 0.976289 -7.4339e-07 0.490546 0 0H12.9583C22.1704 -2.29283e-06 29.8575 7.40804 29.998 16.7359ZM24.0872 13.6668C22.6479 8.91835 18.2206 5.48727 13.0682 5.48727H1.84441V5.48728C1.84441 5.97782 1.93981 6.46355 2.12518 6.91675C2.31054 7.36995 2.58224 7.78173 2.92475 8.12859C3.26727 8.47546 3.67389 8.7506 4.12141 8.93833C4.56893 9.12605 5.04857 9.22267 5.53297 9.22267H13.0842C14.9632 9.2222 16.7802 9.90321 18.2061 11.1424H7.42883V18.4135H16.1816C15.9251 18.9732 15.5196 19.4493 15.0106 19.7885C14.5016 20.1276 13.9093 20.3162 13.3003 20.3332H9.92153C9.59418 20.3332 9.27004 20.3985 8.96761 20.5253C8.66518 20.6522 8.39038 20.8381 8.15891 21.0725C7.92744 21.3069 7.74383 21.5852 7.61857 21.8915C7.4933 22.1977 7.42883 22.526 7.42883 22.8575H11.4165V22.8782H13.2131C14.507 22.8775 15.7634 22.4371 16.781 21.6276C17.7985 20.8182 18.5186 19.6864 18.8258 18.4135H18.8259L18.8265 18.411C18.8534 18.2991 18.8786 18.1867 18.8991 18.0723C18.9216 17.9505 18.9402 17.8273 18.9548 17.7028C18.9624 17.6366 18.9677 17.57 18.9732 17.5032C18.9858 17.3553 18.9941 17.2063 18.9955 17.0555C18.9956 17.0438 18.9973 17.0325 18.9973 17.0207V17.0207C18.9973 17.0179 18.9968 17.0151 18.9968 17.0123C18.9968 17.0082 18.9973 17.0041 18.9973 16.9999C18.9973 16.5235 18.9397 16.0488 18.8259 15.5865H10.2087V13.6668H24.0872ZM1.84441 28.5127H13.2131C14.8246 28.5158 16.4184 28.1712 17.8882 27.5018C19.358 26.8325 20.6702 25.8538 21.7374 24.6309C22.8046 23.4079 23.6023 21.9688 24.0775 20.4093C24.5526 18.8499 24.6943 17.2058 24.4932 15.5865H20.7625C20.84 16.0032 20.8831 16.4257 20.8915 16.8496C20.9101 17.8831 20.7253 18.91 20.3478 19.8703C19.9704 20.8307 19.4079 21.7054 18.6932 22.4433C17.9784 23.1812 17.1258 23.7676 16.1849 24.1683C15.244 24.569 14.2337 24.776 13.2131 24.7772H5.53297C5.04857 24.7772 4.56893 24.8738 4.12141 25.0615C3.67389 25.2492 3.26726 25.5244 2.92475 25.8713C2.58224 26.2181 2.31054 26.6299 2.12517 27.0831C1.93981 27.5363 1.84441 28.022 1.84441 28.5126V28.5127Z" fill="url(#paint0_linear)"/>
<defs>
<linearGradient id="paint0_linear" x1="-3.35476" y1="30.6027" x2="23.8079" y2="3.78022" gradientUnits="userSpaceOnUse">
<stop offset="0.22487" stop-color="#1A237E"/>
<stop offset="0.64815" stop-color="#673AB7"/>
<stop offset="1" stop-color="#E91E63"/>
</linearGradient>
</defs>
</svg>
