<svg width="88" height="46" viewBox="0 0 88 46" fill="none" xmlns="http://www.w3.org/2000/svg">
<path d="M40.6787 22.4105C40.8725 35.1239 30.5869 45.5281 17.9175 45.5281H0V45.528C-3.0241e-06 44.8711 0.129376 44.2207 0.380752 43.6138C0.632128 43.0069 1.00058 42.4555 1.46506 41.991C1.92954 41.5266 2.48096 41.1581 3.08784 40.9068C3.69472 40.6554 4.34516 40.526 5.00203 40.5261H17.9175C20.2782 40.5234 22.6147 40.0507 24.7907 39.1355C26.9668 38.2204 28.9388 36.8811 30.5919 35.1958C32.2449 33.5105 33.5458 31.5129 34.4187 29.3196C35.2916 27.1263 35.7191 24.7811 35.6761 22.4208C35.4915 12.6965 27.3453 5.00194 17.6192 5.00194H5.00203C4.34516 5.00196 3.69472 4.87259 3.08784 4.62122C2.48097 4.36985 1.92955 4.00142 1.46507 3.53694C1.00058 3.07247 0.632133 2.52105 0.380756 1.91418C0.12938 1.30731 -1.00807e-06 0.656872 0 0H17.572C30.0641 -3.07024e-06 40.4882 9.91983 40.6787 22.4105ZM32.6634 18.3007C30.7116 11.9422 24.7079 7.3478 17.7211 7.3478H2.50111V7.34782C2.5011 8.00468 2.63047 8.6551 2.88184 9.26196C3.1332 9.86882 3.50163 10.4202 3.9661 10.8847C4.43056 11.3492 4.98196 11.7176 5.58882 11.969C6.19567 12.2204 6.8461 12.3497 7.50296 12.3497H17.7427C20.2907 12.3491 22.7547 13.261 24.6884 14.9203H10.0738V24.6568H21.943C21.5952 25.4063 21.0453 26.0439 20.3551 26.498C19.6649 26.9521 18.8617 27.2047 18.0358 27.2274H13.4541C13.0102 27.2274 12.5706 27.3148 12.1605 27.4847C11.7504 27.6546 11.3777 27.9035 11.0639 28.2174C10.75 28.5313 10.501 28.904 10.3311 29.3141C10.1613 29.7242 10.0738 30.1637 10.0738 30.6076H15.4814V30.6354H17.9175C19.6722 30.6344 21.3758 30.0447 22.7557 28.9608C24.1356 27.8769 25.112 26.3614 25.5286 24.6568H25.5288L25.5295 24.6535C25.5661 24.5036 25.6002 24.3532 25.6281 24.2C25.6586 24.0368 25.6837 23.8719 25.7036 23.7052C25.7139 23.6166 25.7211 23.5273 25.7285 23.4379C25.7457 23.2399 25.7569 23.0403 25.7588 22.8384C25.7589 22.8227 25.7612 22.8075 25.7612 22.7918V22.7917C25.7612 22.788 25.7606 22.7843 25.7606 22.7806C25.7606 22.775 25.7612 22.7696 25.7612 22.764C25.7612 22.126 25.6831 21.4904 25.5288 20.8713H13.8435V18.3007H32.6634ZM2.50111 38.1803H17.9175C20.1029 38.1844 22.2641 37.723 24.2572 36.8267C26.2504 35.9304 28.0297 34.6198 29.4769 32.9823C30.9241 31.3447 32.0058 29.4176 32.6502 27.3294C33.2945 25.2412 33.4867 23.0396 33.2138 20.8713H28.1549C28.2599 21.4293 28.3185 21.995 28.3298 22.5627C28.355 23.9466 28.1044 25.3216 27.5926 26.6076C27.0808 27.8937 26.318 29.0649 25.3488 30.053C24.3796 31.0411 23.2233 31.8264 21.9474 32.3629C20.6716 32.8995 19.3016 33.1766 17.9175 33.1782H7.50296C6.8461 33.1782 6.19567 33.3076 5.58882 33.559C4.98196 33.8103 4.43056 34.1788 3.96609 34.6432C3.50163 35.1077 3.1332 35.6591 2.88183 36.266C2.63047 36.8728 2.5011 37.5233 2.50111 38.1801V38.1803Z" fill="url(#paint0_linear)"/>
<path d="M46.8735 3.80319H50.6217C51.6878 3.80319 52.2209 4.30758 52.221 5.31634V13.0534C52.221 14.0624 51.6879 14.5667 50.6217 14.5665H46.8735V3.80319ZM50.6562 12.8473V5.52278C50.6749 5.37981 50.638 5.23512 50.553 5.11861C50.4303 5.04108 50.2847 5.00774 50.1405 5.0241H48.4383V13.3456H50.1405C50.2847 13.3621 50.4303 13.3288 50.553 13.2511C50.638 13.1347 50.6749 12.9901 50.6562 12.8473Z" fill="#212121"/>
<path d="M54.748 3.80319H56.2954V14.5665H54.748V3.80319Z" fill="#212121"/>
<path d="M63.8606 6.94981H62.2958V5.52278C62.3146 5.37985 62.2777 5.23517 62.1929 5.11861C62.07 5.04114 61.9244 5.0078 61.78 5.0241H60.9033C60.759 5.00774 60.6135 5.04108 60.4907 5.11861C60.4056 5.23505 60.3687 5.3798 60.3875 5.52278V12.8644C60.3686 13.0073 60.4056 13.1521 60.4907 13.2685C60.6135 13.3461 60.759 13.3794 60.9033 13.363H61.78C61.9244 13.3793 62.07 13.346 62.1929 13.2685C62.2778 13.152 62.3146 13.0073 62.2958 12.8644V10.2338H61.4362V9.03003H63.8606V13.0534C63.8606 14.074 63.3276 14.5841 62.2616 14.5836H60.4217C59.356 14.5836 58.823 14.0735 58.8228 13.0534V5.31634C58.8228 4.30801 59.3557 3.80362 60.4217 3.80319H62.2616C63.3277 3.80319 63.8607 4.30758 63.8606 5.31634V6.94981Z" fill="#212121"/>
<path d="M66.3018 3.80319H67.8491V14.5665H66.3018V3.80319Z" fill="#212121"/>
<path d="M74.8126 3.80319V5.05862H73.0075V14.5665H71.4599V5.05862H69.6548V3.80319H74.8126Z" fill="#212121"/>
<path d="M80.435 14.5665L80.0053 12.0734H77.7358L77.3403 14.5665H75.793L77.7013 3.80319H79.9537L81.9997 14.5665H80.435ZM77.9248 10.8183H79.7989L78.8189 5.14441L77.9248 10.8183Z" fill="#212121"/>
<path d="M85.3349 13.3114H88V14.5665H83.7876V3.80319H85.3349L85.3349 13.3114Z" fill="#212121"/>
<path d="M46.8735 17.3824H50.6217C51.6878 17.3824 52.2209 17.8868 52.221 18.8955V26.6326C52.221 27.6415 51.6879 28.1459 50.6217 28.1457H46.8735V17.3824ZM50.6562 26.4264V19.102C50.6749 18.959 50.638 18.8143 50.553 18.6978C50.4303 18.6203 50.2847 18.5869 50.1405 18.6033H48.4383V26.9248H50.1405C50.2847 26.9413 50.4303 26.908 50.553 26.8303C50.638 26.7139 50.6749 26.5693 50.6562 26.4264Z" fill="#212121"/>
<path d="M56.1408 17.3824H58.0491C59.1151 17.3824 59.6481 17.8868 59.648 18.8955V26.6326C59.648 27.6415 59.115 28.1459 58.0491 28.1457H56.1408C55.0631 28.1457 54.5243 27.6413 54.5244 26.6326V18.8955C54.5244 17.8872 55.0632 17.3828 56.1408 17.3824ZM58.1007 26.3919V19.1362C58.1195 18.9933 58.0826 18.8486 57.9975 18.7323C57.8747 18.6548 57.7292 18.6214 57.5849 18.6378H56.5879C56.5184 18.6143 56.4438 18.6107 56.3724 18.6274C56.301 18.6441 56.2357 18.6804 56.1838 18.7322C56.132 18.784 56.0956 18.8493 56.0789 18.9207C56.0622 18.9921 56.0657 19.0667 56.0892 19.1362V26.3919C56.0657 26.4614 56.0621 26.5361 56.0788 26.6075C56.0955 26.6789 56.1318 26.7442 56.1837 26.7961C56.2355 26.848 56.3009 26.8843 56.3723 26.901C56.4437 26.9177 56.5184 26.9141 56.5879 26.8906H57.5849C57.7292 26.907 57.8747 26.8736 57.9975 26.7961C58.0826 26.6797 58.1196 26.5349 58.1007 26.3919Z" fill="#212121"/>
<path d="M63.6025 26.8906H66.2676V28.1457H62.0552V17.3824H63.6025L63.6025 26.8906Z" fill="#212121"/>
<path d="M69.4653 26.8906H72.1303V28.1457H67.918V17.3824H69.4653L69.4653 26.8906Z" fill="#212121"/>
<path d="M77.7353 28.1457L77.3056 25.6526H75.0361L74.6406 28.1457H73.0933L75.0015 17.3824H77.254L79.3 28.1457H77.7353ZM75.2251 24.3975H77.0992L76.1192 18.7236L75.2251 24.3975Z" fill="#212121"/>
<path d="M82.6357 23.7956V28.1457H81.0884V17.3824H84.613C85.6791 17.3824 86.2121 17.8868 86.212 18.8955V22.2654C86.212 23.1366 85.828 23.6353 85.0601 23.7614L86.7623 28.1457H85.0943L83.4783 23.7956H82.6357ZM82.6357 18.6378V22.5579H84.1489C84.2932 22.5743 84.4388 22.5409 84.5614 22.4631C84.6464 22.3467 84.6834 22.2021 84.6647 22.0592V19.1362C84.6834 18.9933 84.6464 18.8487 84.5614 18.7323C84.4387 18.6548 84.2931 18.6215 84.1489 18.6378H82.6357Z" fill="#212121"/>
<path d="M50.2089 39.9712V37.3406C50.2323 37.2712 50.2359 37.1965 50.2192 37.1251C50.2025 37.0537 50.1662 36.9883 50.1143 36.9365C50.0625 36.8846 49.9972 36.8483 49.9257 36.8316C49.8543 36.8149 49.7796 36.8185 49.7102 36.842H48.438C47.3948 36.842 46.8733 36.3319 46.8735 35.3117V32.4748C46.8735 31.4664 47.4065 30.962 48.4725 30.9616H50.1572C51.2233 30.9616 51.7564 31.466 51.7565 32.4748V34.0566H50.1918V32.7154C50.2105 32.5725 50.1735 32.4279 50.0885 32.3115C49.9658 32.234 49.8202 32.2007 49.676 32.217H48.9538C48.8095 32.2007 48.664 32.2341 48.5412 32.3115C48.4562 32.4279 48.4193 32.5725 48.438 32.7154V35.1053C48.4192 35.2483 48.4562 35.393 48.5412 35.5094C48.6639 35.5871 48.8095 35.6204 48.9538 35.604H50.2089C51.2633 35.604 51.7906 36.1083 51.7907 37.1171V40.2118C51.7907 41.2208 51.252 41.7252 50.1747 41.7249H48.5067C47.4409 41.7249 46.9079 41.2206 46.9077 40.2118V38.6299H48.4725V39.9712C48.4537 40.1141 48.4905 40.2588 48.5754 40.3753C48.6983 40.4528 48.8439 40.4861 48.9883 40.4698H49.7102C49.7796 40.4933 49.8543 40.4969 49.9257 40.4802C49.9972 40.4635 50.0625 40.4272 50.1143 40.3753C50.1662 40.3235 50.2025 40.2581 50.2192 40.1867C50.2359 40.1153 50.2323 40.0406 50.2089 39.9712Z" fill="#212121"/>
<path d="M58.3585 30.9616V32.217H56.5534V41.7249H55.0058V32.217H53.2007V30.9616H58.3585Z" fill="#212121"/>
<path d="M61.5568 30.9616H63.4651C64.5312 30.9616 65.0641 31.466 65.064 32.4748V40.2118C65.064 41.2208 64.5311 41.7252 63.4651 41.7249H61.5568C60.4791 41.7249 59.9403 41.2206 59.9404 40.2118V32.4748C59.9404 31.4664 60.4792 30.962 61.5568 30.9616ZM63.5167 39.9712V32.7154C63.5356 32.5725 63.4986 32.4279 63.4135 32.3115C63.2907 32.234 63.1452 32.2007 63.0009 32.217H62.0039C61.9344 32.1935 61.8598 32.1899 61.7884 32.2066C61.717 32.2233 61.6517 32.2596 61.5998 32.3114C61.548 32.3632 61.5116 32.4285 61.4949 32.4999C61.4782 32.5713 61.4817 32.6459 61.5052 32.7154V39.9712C61.4817 40.0406 61.4781 40.1153 61.4948 40.1867C61.5115 40.2581 61.5478 40.3235 61.5997 40.3753C61.6516 40.4272 61.7169 40.4635 61.7883 40.4802C61.8597 40.4969 61.9344 40.4933 62.0039 40.4698H63.0009C63.1452 40.4862 63.2907 40.4529 63.4135 40.3753C63.4986 40.2589 63.5356 40.1141 63.5167 39.9712Z" fill="#212121"/>
<path d="M69.0185 37.3748V41.7249H67.4712V30.9616H70.9959C72.0619 30.9616 72.5949 31.466 72.5948 32.4748V35.8446C72.5948 36.7158 72.2108 37.2145 71.4429 37.3406L73.1451 41.7249H71.4771L69.8611 37.3748H69.0185ZM69.0185 32.217V36.1372H70.5317C70.676 36.1536 70.8216 36.1201 70.9442 36.0423C71.0292 35.926 71.0662 35.7813 71.0475 35.6385V32.7154C71.0662 32.5725 71.0292 32.4279 70.9442 32.3115C70.8215 32.2341 70.6759 32.2007 70.5317 32.217H69.0185Z" fill="#212121"/>
<path d="M76.5317 40.4698H79.6438V41.7249H74.9673V30.9616H79.5235V32.217H76.5317V35.5352H79.0077V36.7904H76.5317L76.5317 40.4698Z" fill="#212121"/>
<defs>
<linearGradient id="paint0_linear" x1="-4.5492" y1="40.9789" x2="31.8262" y2="4.60354" gradientUnits="userSpaceOnUse">
<stop offset="0.22487" stop-color="#1A237E"/>
<stop offset="0.64815" stop-color="#673AB7"/>
<stop offset="1" stop-color="#E91E63"/>
</linearGradient>
</defs>
</svg>
