<svg width="63" height="60" viewBox="0 0 63 60" fill="none" xmlns="http://www.w3.org/2000/svg">
<g filter="url(#filter0_d)">
<path d="M6.79026 35.0572C7.68534 35.7984 8.42571 36.7141 8.34836 37.3464C8.30416 37.717 8.28206 38.0985 8.28206 38.4909C8.28206 44.203 12.8458 48.8359 18.4705 48.8359C19.1666 48.8359 19.8407 48.7705 20.5037 48.6287C21.6088 48.3998 22.9127 48.8359 23.6973 49.697C25.5537 51.7246 28.2058 53 31.1562 53C34.2724 53 37.0571 51.5829 38.9246 49.3482C39.665 48.4652 40.9247 48.0946 42.0408 48.4216C42.947 48.6833 43.8973 48.8359 44.8918 48.8359C50.5164 48.8359 55.0802 44.203 55.0802 38.4909C55.0802 37.8478 55.025 37.2264 54.9145 36.6269C54.7266 35.6022 55.2349 34.3377 56.0748 33.5311C58.0638 31.6452 59.3125 28.9636 59.3125 25.9877C59.3125 22.7392 57.8318 19.8505 55.5222 17.9537C54.6272 17.2125 53.8868 16.2968 53.9641 15.6645C54.0083 15.2939 54.0304 14.9124 54.0304 14.5199C54.0304 8.8079 49.4667 4.17503 43.842 4.17503C43.1459 4.17503 42.4718 4.25134 41.8088 4.38215C40.7037 4.61107 39.3998 4.17503 38.6152 3.31386C36.7588 1.2754 34.1067 0 31.1562 0C28.2058 0 25.5537 1.2754 23.6973 3.30296C22.9127 4.15323 21.6088 4.60016 20.5037 4.37125C19.8518 4.24044 19.1666 4.16413 18.4705 4.16413C12.8458 4.16413 8.28206 8.797 8.28206 14.509C8.28206 15.0541 8.32626 15.5991 8.40361 16.1224C8.54727 17.0053 7.9174 18.0954 7.00022 18.8149C4.56915 20.7007 3 23.6767 3 27.0232C3 30.2608 4.48074 33.1604 6.79026 35.0572Z" fill="url(#paint0_linear)"/>
<path d="M16.346 27.6103C16.5705 27.2302 17.1657 27.2197 17.6935 27.663L23.0947 31.2416C23.3867 31.4105 23.6674 31.495 23.9369 31.495C24.4984 31.495 24.9363 31.115 25.363 30.756L42.656 14.4888C43.734 13.3804 44.7895 12.9898 45.4745 13.4226C45.7889 13.6232 45.991 13.9082 46.0472 14.2565C46.1146 14.6577 45.9574 15.0905 45.6205 15.4811L24.8352 39.2116C24.532 39.56 24.1503 39.75 23.7572 39.75C23.2856 39.75 22.8589 39.4861 22.5894 39.0216L16.4919 28.6764C16.2337 28.2859 16.1775 27.8847 16.346 27.6103Z" fill="white"/>
</g>
<defs>
<filter id="filter0_d" x="0" y="0" width="62.3125" height="60" filterUnits="userSpaceOnUse" color-interpolation-filters="sRGB">
<feFlood flood-opacity="0" result="BackgroundImageFix"/>
<feColorMatrix in="SourceAlpha" type="matrix" values="0 0 0 0 0 0 0 0 0 0 0 0 0 0 0 0 0 0 127 0"/>
<feOffset dy="4"/>
<feGaussianBlur stdDeviation="1.5"/>
<feColorMatrix type="matrix" values="0 0 0 0 0.403922 0 0 0 0 0.231373 0 0 0 0 0.717647 0 0 0 0.1 0"/>
<feBlend mode="normal" in2="BackgroundImageFix" result="effect1_dropShadow"/>
<feBlend mode="normal" in="SourceGraphic" in2="effect1_dropShadow" result="shape"/>
</filter>
<linearGradient id="paint0_linear" x1="-3.29716" y1="47.7042" x2="38.4208" y2="-1.90203" gradientUnits="userSpaceOnUse">
<stop offset="0.22487" stop-color="#1A237E"/>
<stop offset="0.64815" stop-color="#673AB7"/>
<stop offset="1" stop-color="#E91E63"/>
</linearGradient>
</defs>
</svg>
