<svg width="47" height="47" viewBox="0 0 47 47" fill="none" xmlns="http://www.w3.org/2000/svg">
<path d="M21.2871 11.75C20.8563 11.75 20.4293 11.562 20.1395 11.1997C19.6323 10.5652 19.7361 9.64283 20.3686 9.13563L27.025 3.80896C27.2502 3.62879 27.2346 3.41338 27.1836 3.26454C27.1327 3.11571 27.0133 2.9375 26.7313 2.9375H8.51876C8.23676 2.9375 8.1173 3.11375 8.06638 3.26454C8.01547 3.41533 7.9998 3.62879 8.22305 3.807L14.8814 9.13563C15.5139 9.64283 15.6177 10.5652 15.1105 11.1997C14.6013 11.8362 13.679 11.9341 13.0445 11.4288L6.38809 6.10217C5.23659 5.18371 4.8038 3.6895 5.29143 2.29517C5.77905 0.900833 7.04609 0 8.51876 0H26.7332C28.2059 0 29.471 0.900833 29.9586 2.29321C30.4462 3.68558 30.0134 5.18175 28.86 6.10217L22.2056 11.4269C21.9333 11.6443 21.6102 11.75 21.2871 11.75V11.75Z" fill="black"/>
<path d="M21.2871 11.75C20.8563 11.75 20.4293 11.562 20.1395 11.1997C19.6323 10.5652 19.7361 9.64283 20.3686 9.13563L27.025 3.80896C27.2502 3.62879 27.2346 3.41338 27.1836 3.26454C27.1327 3.11571 27.0133 2.9375 26.7313 2.9375H8.51876C8.23676 2.9375 8.1173 3.11375 8.06638 3.26454C8.01547 3.41533 7.9998 3.62879 8.22305 3.807L14.8814 9.13563C15.5139 9.64283 15.6177 10.5652 15.1105 11.1997C14.6013 11.8362 13.679 11.9341 13.0445 11.4288L6.38809 6.10217C5.23659 5.18371 4.8038 3.6895 5.29143 2.29517C5.77905 0.900833 7.04609 0 8.51876 0H26.7332C28.2059 0 29.471 0.900833 29.9586 2.29321C30.4462 3.68558 30.0134 5.18175 28.86 6.10217L22.2056 11.4269C21.9333 11.6443 21.6102 11.75 21.2871 11.75V11.75Z" fill="url(#paint0_linear)"/>
<path d="M27.9063 11.75H7.34375C6.533 11.75 5.875 11.092 5.875 10.2813C5.875 9.4705 6.533 8.8125 7.34375 8.8125H27.9063C28.717 8.8125 29.375 9.4705 29.375 10.2813C29.375 11.092 28.717 11.75 27.9063 11.75Z" fill="black"/>
<path d="M27.9063 11.75H7.34375C6.533 11.75 5.875 11.092 5.875 10.2813C5.875 9.4705 6.533 8.8125 7.34375 8.8125H27.9063C28.717 8.8125 29.375 9.4705 29.375 10.2813C29.375 11.092 28.717 11.75 27.9063 11.75Z" fill="url(#paint1_linear)"/>
<path d="M31.2749 24.2443C30.7011 24.2443 30.1567 23.9055 29.9217 23.3434C27.6813 17.9933 24.2719 13.5851 20.8017 11.5504C20.1026 11.1411 19.8656 10.2402 20.2749 9.54111C20.6842 8.84199 21.5831 8.60503 22.2842 9.01628C26.287 11.3604 30.1547 16.2934 32.6281 22.2096C32.9414 22.9577 32.5889 23.8174 31.8428 24.1307C31.6568 24.2071 31.4629 24.2443 31.2749 24.2443V24.2443Z" fill="black"/>
<path d="M31.2749 24.2443C30.7011 24.2443 30.1567 23.9055 29.9217 23.3434C27.6813 17.9933 24.2719 13.5851 20.8017 11.5504C20.1026 11.1411 19.8656 10.2402 20.2749 9.54111C20.6842 8.84199 21.5831 8.60503 22.2842 9.01628C26.287 11.3604 30.1547 16.2934 32.6281 22.2096C32.9414 22.9577 32.5889 23.8174 31.8428 24.1307C31.6568 24.2071 31.4629 24.2443 31.2749 24.2443V24.2443Z" fill="url(#paint2_linear)"/>
<path d="M23.9896 47.0001H11.2604C3.48192 47.0001 0 40.3613 0 33.7813C0 24.6398 6.05908 13.0661 12.9642 9.01427C13.6633 8.60302 14.5622 8.83802 14.9734 9.53911C15.3847 10.2382 15.1497 11.1391 14.4505 11.5484C8.42671 15.0831 2.9375 25.6797 2.9375 33.7813C2.9375 38.5244 5.11712 44.0626 11.2604 44.0626H23.9896C24.8003 44.0626 25.4583 44.7206 25.4583 45.5313C25.4583 46.3421 24.8003 47.0001 23.9896 47.0001Z" fill="black"/>
<path d="M23.9896 47.0001H11.2604C3.48192 47.0001 0 40.3613 0 33.7813C0 24.6398 6.05908 13.0661 12.9642 9.01427C13.6633 8.60302 14.5622 8.83802 14.9734 9.53911C15.3847 10.2382 15.1497 11.1391 14.4505 11.5484C8.42671 15.0831 2.9375 25.6797 2.9375 33.7813C2.9375 38.5244 5.11712 44.0626 11.2604 44.0626H23.9896C24.8003 44.0626 25.4583 44.7206 25.4583 45.5313C25.4583 46.3421 24.8003 47.0001 23.9896 47.0001Z" fill="url(#paint3_linear)"/>
<path d="M43.5729 46.9998H32.8021C30.9123 46.9998 29.375 45.4625 29.375 43.5728V36.7186C29.375 34.8288 30.9123 33.2915 32.8021 33.2915H43.5729C45.4627 33.2915 47 34.8288 47 36.7186V43.5728C47 45.4625 45.4627 46.9998 43.5729 46.9998ZM32.8021 36.229C32.5318 36.229 32.3125 36.4483 32.3125 36.7186V43.5728C32.3125 43.843 32.5318 44.0623 32.8021 44.0623H43.5729C43.8432 44.0623 44.0625 43.843 44.0625 43.5728V36.7186C44.0625 36.4483 43.8432 36.229 43.5729 36.229H32.8021Z" fill="black"/>
<path d="M43.5729 46.9998H32.8021C30.9123 46.9998 29.375 45.4625 29.375 43.5728V36.7186C29.375 34.8288 30.9123 33.2915 32.8021 33.2915H43.5729C45.4627 33.2915 47 34.8288 47 36.7186V43.5728C47 45.4625 45.4627 46.9998 43.5729 46.9998ZM32.8021 36.229C32.5318 36.229 32.3125 36.4483 32.3125 36.7186V43.5728C32.3125 43.843 32.5318 44.0623 32.8021 44.0623H43.5729C43.8432 44.0623 44.0625 43.843 44.0625 43.5728V36.7186C44.0625 36.4483 43.8432 36.229 43.5729 36.229H32.8021Z" fill="url(#paint4_linear)"/>
<path d="M41.6139 36.2293H34.7598C33.949 36.2293 33.291 35.5713 33.291 34.7606V30.3543C33.291 27.6557 35.4863 25.4585 38.1868 25.4585C40.8874 25.4585 43.0827 27.6557 43.0827 30.3543V34.7606C43.0827 35.5713 42.4247 36.2293 41.6139 36.2293ZM36.2285 33.2918H40.1452V30.3543C40.1452 29.2753 39.2678 28.396 38.1868 28.396C37.1058 28.396 36.2285 29.2753 36.2285 30.3543V33.2918Z" fill="black"/>
<path d="M41.6139 36.2293H34.7598C33.949 36.2293 33.291 35.5713 33.291 34.7606V30.3543C33.291 27.6557 35.4863 25.4585 38.1868 25.4585C40.8874 25.4585 43.0827 27.6557 43.0827 30.3543V34.7606C43.0827 35.5713 42.4247 36.2293 41.6139 36.2293ZM36.2285 33.2918H40.1452V30.3543C40.1452 29.2753 39.2678 28.396 38.1868 28.396C37.1058 28.396 36.2285 29.2753 36.2285 30.3543V33.2918Z" fill="url(#paint5_linear)"/>
<circle cx="17" cy="29" r="6.25" stroke="black" stroke-width="2.5"/>
<circle cx="17" cy="29" r="6.25" stroke="url(#paint6_linear)" stroke-width="2.5"/>
<defs>
<linearGradient id="paint0_linear" x1="5.09375" y1="-12.4634" x2="34.9181" y2="5.6933" gradientUnits="userSpaceOnUse">
<stop stop-color="#8834A2"/>
<stop offset="1" stop-color="#D9226E"/>
</linearGradient>
<linearGradient id="paint1_linear" x1="5.875" y1="5.69697" x2="12.0426" y2="19.7811" gradientUnits="userSpaceOnUse">
<stop stop-color="#8834A2"/>
<stop offset="1" stop-color="#D9226E"/>
</linearGradient>
<linearGradient id="paint2_linear" x1="20.0742" y1="-7.55101" x2="39.661" y2="-2.96079" gradientUnits="userSpaceOnUse">
<stop stop-color="#8834A2"/>
<stop offset="1" stop-color="#D9226E"/>
</linearGradient>
<linearGradient id="paint3_linear" x1="2.87847e-07" y1="-31.691" x2="40.0725" y2="-24.0655" gradientUnits="userSpaceOnUse">
<stop stop-color="#8834A2"/>
<stop offset="1" stop-color="#D9226E"/>
</linearGradient>
<linearGradient id="paint4_linear" x1="29.375" y1="18.7524" x2="54.7098" y2="28.0502" gradientUnits="userSpaceOnUse">
<stop stop-color="#8834A2"/>
<stop offset="1" stop-color="#D9226E"/>
</linearGradient>
<linearGradient id="paint5_linear" x1="33.291" y1="14.0349" x2="48.254" y2="17.9177" gradientUnits="userSpaceOnUse">
<stop stop-color="#8834A2"/>
<stop offset="1" stop-color="#D9226E"/>
</linearGradient>
<linearGradient id="paint6_linear" x1="12" y1="13.3939" x2="27.0816" y2="17.6989" gradientUnits="userSpaceOnUse">
<stop stop-color="#8834A2"/>
<stop offset="1" stop-color="#D9226E"/>
</linearGradient>
</defs>
</svg>
