<svg width="49" height="34" viewBox="0 0 49 34" fill="none" xmlns="http://www.w3.org/2000/svg">
<path d="M34.3567 25.8534C34.0858 25.397 33.4963 25.2469 33.04 25.5181C30.8122 26.8416 27.9846 27.5706 25.078 27.5706C24.5473 27.5706 24.1172 28.0009 24.1172 28.5313C24.1172 29.0618 24.5473 29.4921 25.078 29.4921C28.3249 29.4921 31.5011 28.6674 34.0214 27.17C34.4776 26.899 34.6277 26.3095 34.3567 25.8534Z" fill="#8834A2"/>
<path d="M35.8695 23.8574C34.6331 23.8574 34.631 25.779 35.8695 25.779C37.1059 25.779 37.108 23.8574 35.8695 23.8574Z" fill="#8834A2"/>
<path fill-rule="evenodd" clip-rule="evenodd" d="M45.1865 8.29661C42.7078 7.30484 39.8525 7.97151 37.5639 10.0266C36.8045 9.47357 35.9815 8.97122 35.1063 8.52601L34.2064 6.70306C33.4299 5.12931 31.8573 4.1517 30.1022 4.1517H28.1096V2.61538C28.1096 1.17323 26.9363 0 25.4943 0H24.6603C23.2177 0 22.0441 1.17323 22.0441 2.61538V4.1517H20.0524C18.2972 4.1517 16.7246 5.12931 15.9484 6.70258L15.0474 8.5262C13.9865 9.06578 12.999 9.69063 12.1095 10.3882L12.0993 10.3964C12.0314 10.4494 11.9642 10.5035 11.8953 10.5596C10.9256 11.2768 9.96718 10.9066 8.4878 10.2449L8.47602 10.2397C8.23779 10.1332 7.9916 10.0231 7.74639 9.92232C5.9576 9.18627 4.30365 8.98223 4.23408 8.97391C3.94697 8.93945 3.65967 9.0363 3.4517 9.23747L0.292538 12.2946C0.0684965 12.5115 -0.0362985 12.8236 0.011266 13.1316C0.0588305 13.4397 0.253012 13.7057 0.531987 13.8448C0.590749 13.8741 6.42482 16.8362 7.13609 21.7336L7.13867 21.7506C7.68667 25.1027 9.82487 28.1757 13.159 30.4034C16.4498 32.604 20.6826 33.8159 25.0773 33.8159C29.0604 33.8159 32.836 32.851 35.9957 31.0255C39.0206 29.278 41.2766 26.8076 42.3757 24.0485C42.8683 23.6263 44.2069 22.4415 45.551 20.922C47.8275 18.3481 48.9878 16.1027 48.9999 14.2479C49.0166 11.5246 47.5554 9.24436 45.1865 8.29661ZM23.9655 2.61528C23.9655 2.23276 24.2771 1.92153 24.6601 1.92153H25.4941C25.8766 1.92153 26.1877 2.23276 26.1877 2.61528V4.15161H23.9654L23.9655 2.61528ZM17.6713 7.55319C18.1217 6.64028 19.0341 6.07323 20.0523 6.07323H30.102C31.1203 6.07323 32.0326 6.64028 32.4831 7.55338L32.8414 8.27919H17.3126L17.6713 7.55319ZM40.6673 23.1379C38.751 28.2936 32.3399 31.8942 25.0771 31.8942C21.0584 31.8942 17.2051 30.7974 14.2266 28.8057C11.3426 26.8787 9.49958 24.2661 9.03618 21.4485C8.38779 17.014 4.52052 14.0414 2.5431 12.7905L4.44223 10.9524C4.99128 11.0535 5.98583 11.2758 7.01502 11.6992C7.23708 11.7906 7.46276 11.8915 7.70168 11.9983L7.70284 11.9988C9.15026 12.6462 11.1328 13.533 13.0615 12.0866C13.0713 12.0792 13.0846 12.0686 13.0942 12.0608L13.1155 12.0435C13.1733 11.9967 13.2315 11.9494 13.2907 11.9035C13.2962 11.8993 13.3016 11.895 13.307 11.8905C14.1164 11.2569 15.0199 10.6898 15.9937 10.2004H34.1597C35.212 10.7292 36.1789 11.3466 37.0347 12.0405C39.7434 14.2332 41.2354 17.0655 41.2354 20.0157C41.2355 21.075 41.0444 22.1254 40.6673 23.1379ZM43.1323 20.706C43.1471 20.4765 43.1572 20.2465 43.1572 20.016C43.1572 16.795 41.7133 13.7218 39.0686 11.2629C41.0425 9.6089 43.1065 9.53425 44.4726 10.0807C46.1162 10.7383 47.0903 12.2916 47.0781 14.2355C47.0656 16.1878 44.9846 18.8045 43.1323 20.706Z" fill="#8834A2"/>
</svg>
