<svg width="19" height="18" viewBox="0 0 19 18" fill="none" xmlns="http://www.w3.org/2000/svg">
<path d="M2.14423 11.5833C2.41444 11.8071 2.63795 12.0835 2.6146 12.2744C2.60126 12.3863 2.59458 12.5014 2.59458 12.6199C2.59458 14.3443 3.97233 15.7429 5.67033 15.7429C5.88049 15.7429 6.08399 15.7232 6.28414 15.6804C6.61774 15.6113 7.01138 15.7429 7.24823 16.0029L2.14423 11.5833ZM2.14423 11.5833L1.82532 11.9684C1.82558 11.9686 1.82584 11.9688 1.82611 11.969C1.82637 11.9693 1.82663 11.9695 1.8269 11.9697L2.14423 11.5833ZM17.1739 6.03425C17.9817 6.69806 18.5 7.70954 18.5 8.84533C18.5 9.88562 18.0633 10.8242 17.368 11.4841L1.89994 6.28584C1.98818 6.21641 2.05782 6.13219 2.09913 6.05533C2.13843 5.98222 2.13708 5.9458 2.13747 5.94579C2.13749 5.94578 2.13751 5.94588 2.13755 5.94606L2.1366 5.94026L2.13666 5.94025C2.11005 5.76029 2.09458 5.57124 2.09458 5.38009C2.09458 3.38674 3.68906 1.7571 5.67033 1.7571C5.91671 1.7571 6.15658 1.78406 6.3825 1.82939L6.38557 1.83001C6.53642 1.86127 6.75466 1.79412 6.88012 1.65876C7.53003 0.949327 8.46186 0.5 9.5 0.5C10.5386 0.5 11.4712 0.949762 12.1214 1.66368M17.1739 6.03425C17.0611 5.94079 16.9713 5.84664 16.9168 5.77072C16.9039 5.75273 16.8948 5.73825 16.8885 5.72737M17.1739 6.03425C17.1736 6.03403 17.1734 6.03382 17.1731 6.0336L16.8558 6.41996L17.1747 6.0349C17.1744 6.03468 17.1742 6.03447 17.1739 6.03425ZM16.8885 5.72737C16.8999 5.61442 16.9054 5.49972 16.9054 5.38338C16.9054 3.39003 15.3109 1.76039 13.3297 1.76039C13.0825 1.76039 12.8464 1.78752 12.6191 1.83237L12.6191 1.83235L12.6144 1.83331C12.4605 1.86519 12.2439 1.79818 12.1214 1.66368M16.8885 5.72737C16.8817 5.71539 16.8782 5.70777 16.877 5.70461C16.8767 5.70381 16.8766 5.70342 16.8766 5.70341C16.8767 5.70338 16.8881 5.73484 16.8819 5.78813C16.8843 5.76793 16.8865 5.74768 16.8885 5.72737ZM12.1214 1.66368C12.1214 1.6637 12.1214 1.66372 12.1214 1.66375L11.7518 2.00041L12.1214 1.66368ZM16.6723 12.0572L17.1641 11.967C17.1641 11.9669 17.164 11.9667 17.164 11.9665L16.6723 12.0572ZM12.2283 16.2188C12.2284 16.2187 12.2285 16.2186 12.2286 16.2185C12.2287 16.2184 12.2287 16.2183 12.2288 16.2182L11.8452 15.8976L12.2283 16.2188ZM6.38557 16.17C6.38608 16.1699 6.3866 16.1698 6.38711 16.1697C6.38762 16.1696 6.38814 16.1694 6.38865 16.1693L6.28415 15.6804L6.38557 16.17ZM2.11812 12.2152C2.11571 12.2354 2.11349 12.2556 2.11145 12.2759C2.11834 12.2879 2.12177 12.2955 2.123 12.2987C2.12611 12.3067 2.11119 12.2744 2.11812 12.2152Z" fill="#D9226E" stroke="white"/>
<path d="M5.02897 9.33517C5.09677 9.22045 5.27644 9.21726 5.43576 9.35111L7.06633 10.4314C7.15447 10.4824 7.23922 10.5079 7.32057 10.5079C7.49007 10.5079 7.62228 10.3932 7.7511 10.2848L12.9716 5.37397C13.297 5.03936 13.6157 4.92144 13.8225 5.0521C13.9174 5.11265 13.9784 5.1987 13.9954 5.30386C14.0157 5.42496 13.9683 5.55562 13.8666 5.67353L7.59177 12.8375C7.50024 12.9426 7.38498 13 7.26633 13C7.12396 13 6.99514 12.9203 6.91378 12.7801L5.07304 9.65704C4.99507 9.53913 4.97812 9.41803 5.02897 9.33517Z" fill="white"/>
</svg>
