<svg width="19" height="18" viewBox="0 0 19 18" fill="none" xmlns="http://www.w3.org/2000/svg">
<path d="M6.87946 16.3405L6.87863 16.3396C6.75649 16.2056 6.54093 16.1385 6.38711 16.1697C6.14994 16.2202 5.9117 16.2429 5.67033 16.2429C3.68906 16.2429 2.09458 14.6133 2.09458 12.6199C2.09458 12.5036 2.10014 12.3889 2.11145 12.2759C2.1052 12.265 2.09609 12.2506 2.08319 12.2326C2.02874 12.1567 1.93885 12.0625 1.82611 11.969C1.01808 11.305 0.5 10.2902 0.5 9.15796C0.5 7.98893 1.04845 6.94697 1.8999 6.28587C1.98816 6.21644 2.05781 6.1322 2.09913 6.05533C2.13843 5.98222 2.13708 5.9458 2.13747 5.94579C2.13749 5.94579 2.13751 5.94588 2.13755 5.94607L2.1366 5.94026L2.13666 5.94025C2.11005 5.76029 2.09458 5.57124 2.09458 5.38009C2.09458 3.38674 3.68906 1.7571 5.67033 1.7571C5.91671 1.7571 6.15658 1.78406 6.3825 1.82939L6.38557 1.83001C6.53642 1.86127 6.75466 1.79412 6.88012 1.65876C7.53003 0.949327 8.46186 0.5 9.5 0.5C10.5386 0.5 11.4712 0.949763 12.1214 1.66368C12.2439 1.79818 12.4605 1.86519 12.6144 1.83331L12.6191 1.83235L12.6191 1.83237C12.8464 1.78752 13.0825 1.76039 13.3297 1.76039C15.3109 1.76039 16.9054 3.39003 16.9054 5.38338C16.9054 5.49971 16.8999 5.61442 16.8885 5.72737C16.8948 5.73825 16.9039 5.75273 16.9168 5.77072C16.9713 5.84664 17.0611 5.94079 17.1739 6.03425C17.9817 6.69806 18.5 7.70954 18.5 8.84533C18.5 9.88559 18.0633 10.8241 17.3681 11.484M6.87946 16.3405L17.0226 11.1226M6.87946 16.3405C7.5294 17.0504 8.46151 17.5 9.5 17.5C10.5963 17.5 11.5748 17.0007 12.2286 16.2185M6.87946 16.3405L12.2286 16.2185M17.3681 11.484C17.3676 11.4845 17.3671 11.485 17.3666 11.4854L17.0226 11.1226M17.3681 11.484C17.3683 11.4837 17.3686 11.4835 17.3689 11.4832L17.0226 11.1226M17.3681 11.484C17.2057 11.6406 17.1446 11.8608 17.1641 11.967M17.0226 11.1226C16.769 11.3661 16.6156 11.7478 16.6723 12.0572M17.1641 11.967C17.1641 11.9669 17.164 11.9667 17.164 11.9665L16.6723 12.0572M17.1641 11.967C17.2032 12.1793 17.2223 12.3972 17.2223 12.6199C17.2223 14.6133 15.6279 16.2429 13.6466 16.2429C13.2945 16.2429 12.9609 16.1888 12.6472 16.0982L12.6453 16.0977C12.4946 16.0535 12.3216 16.1079 12.2286 16.2185M17.1641 11.967L16.6723 12.0572M16.6723 12.0572C16.7057 12.2382 16.7223 12.4258 16.7223 12.6199C16.7223 14.3443 15.3446 15.7429 13.6466 15.7429C13.3464 15.7429 13.0595 15.6968 12.7859 15.6179L12.2286 16.2185" fill="#D9226E" stroke="white"/>
<path d="M5.02897 9.33517C5.09677 9.22045 5.27644 9.21726 5.43576 9.35111L7.06633 10.4314C7.15447 10.4824 7.23922 10.5079 7.32057 10.5079C7.49007 10.5079 7.62228 10.3932 7.7511 10.2848L12.9716 5.37397C13.297 5.03936 13.6157 4.92144 13.8225 5.0521C13.9174 5.11265 13.9784 5.1987 13.9954 5.30386C14.0157 5.42496 13.9683 5.55562 13.8666 5.67353L7.59177 12.8375C7.50024 12.9426 7.38498 13 7.26633 13C7.12396 13 6.99514 12.9203 6.91378 12.7801L5.07304 9.65704C4.99507 9.53913 4.97812 9.41803 5.02897 9.33517Z" fill="white"/>
</svg>
