<svg width="19" height="18" viewBox="0 0 19 18" fill="none" xmlns="http://www.w3.org/2000/svg">
<path d="M1.27885 11.9062C1.58085 12.158 1.83065 12.4689 1.80455 12.6837C1.78964 12.8095 1.78218 12.9391 1.78218 13.0724C1.78218 15.0123 3.32202 16.5858 5.21978 16.5858C5.45467 16.5858 5.6821 16.5636 5.90581 16.5154C6.27865 16.4377 6.7186 16.5858 6.98332 16.8782C7.60969 17.5668 8.50451 18 9.5 18C10.5514 18 11.491 17.5187 12.1211 16.7598C12.3709 16.4599 12.7959 16.334 13.1725 16.4451C13.4782 16.5339 13.7989 16.5858 14.1344 16.5858C16.0322 16.5858 17.572 15.0123 17.572 13.0724C17.572 12.854 17.5534 12.6429 17.5161 12.4393C17.4527 12.0913 17.6242 11.6619 17.9076 11.3879C18.5787 10.7474 19 9.83669 19 8.826C19 7.72275 18.5004 6.74167 17.7212 6.09749C17.4192 5.84574 17.1693 5.53476 17.1954 5.32003C17.2104 5.19416 17.2178 5.06458 17.2178 4.9313C17.2178 2.99136 15.678 1.41794 13.7802 1.41794C13.5453 1.41794 13.3179 1.44385 13.0942 1.48828C12.7213 1.56602 12.2814 1.41794 12.0167 1.12546C11.3903 0.433155 10.4955 0 9.5 0C8.50451 0 7.60969 0.433155 6.98332 1.12176C6.7186 1.41053 6.27865 1.56232 5.90581 1.48457C5.68583 1.44015 5.45467 1.41423 5.21978 1.41423C3.32202 1.41423 1.78218 2.98766 1.78218 4.9276C1.78218 5.11271 1.7971 5.29782 1.82319 5.47552C1.87166 5.7754 1.65914 6.14562 1.34969 6.38996C0.529435 7.03044 0 8.04114 0 9.1777C0 10.2773 0.499608 11.262 1.27885 11.9062Z" fill="white"/>
<path d="M2.14423 11.5833C2.41444 11.8071 2.63795 12.0835 2.6146 12.2744C2.60126 12.3863 2.59458 12.5014 2.59458 12.6199C2.59458 14.3443 3.97233 15.7429 5.67033 15.7429C5.88049 15.7429 6.08399 15.7232 6.28414 15.6804C6.61774 15.6113 7.01138 15.7429 7.24823 16.0029C7.80867 16.615 8.6093 17 9.5 17C10.4407 17 11.2814 16.5722 11.8452 15.8976C12.0687 15.631 12.449 15.5191 12.7859 15.6179C13.0595 15.6968 13.3463 15.7429 13.6466 15.7429C15.3446 15.7429 16.7223 14.3443 16.7223 12.6199C16.7223 12.4258 16.7057 12.2382 16.6723 12.0572C16.6156 11.7478 16.769 11.3661 17.0226 11.1226C17.623 10.5533 18 9.74373 18 8.84533C18 7.86467 17.553 6.9926 16.8558 6.41999C16.5856 6.19622 16.362 5.91979 16.3854 5.72892C16.3987 5.61703 16.4054 5.50185 16.4054 5.38338C16.4054 3.65899 15.0277 2.26039 13.3297 2.26039C13.1195 2.26039 12.916 2.28342 12.7159 2.32291C12.3823 2.39202 11.9886 2.26039 11.7518 2.00041C11.1913 1.38503 10.3907 1 9.5 1C8.6093 1 7.80867 1.38503 7.24823 1.99712C7.01138 2.25381 6.61774 2.38873 6.28414 2.31962C6.08732 2.28013 5.88049 2.2571 5.67033 2.2571C3.97233 2.2571 2.59458 3.6557 2.59458 5.38009C2.59458 5.54463 2.60793 5.70917 2.63128 5.86713C2.67465 6.13369 2.4845 6.46277 2.20761 6.67997C1.4737 7.24928 1 8.14768 1 9.15796C1 10.1353 1.44702 11.0107 2.14423 11.5833Z" fill="#D9226E"/>
<path d="M5.02897 9.33517C5.09677 9.22045 5.27644 9.21726 5.43576 9.35111L7.06633 10.4314C7.15447 10.4824 7.23922 10.5079 7.32057 10.5079C7.49007 10.5079 7.62228 10.3932 7.7511 10.2848L12.9716 5.37397C13.297 5.03936 13.6157 4.92144 13.8225 5.0521C13.9174 5.11265 13.9784 5.1987 13.9954 5.30386C14.0157 5.42496 13.9683 5.55562 13.8666 5.67353L7.59177 12.8375C7.50024 12.9426 7.38498 13 7.26633 13C7.12396 13 6.99514 12.9203 6.91378 12.7801L5.07304 9.65704C4.99507 9.53913 4.97812 9.41803 5.02897 9.33517Z" fill="white"/>
</svg>
