<svg width="18" height="18" viewBox="0 0 18 18" fill="none" xmlns="http://www.w3.org/2000/svg">
<path fill-rule="evenodd" clip-rule="evenodd" d="M11.5507 2.50365H11.5624L11.5612 2.5L11.5507 2.50365ZM11.5108 2.51763L11.5507 2.50365H11.5252L11.5108 2.51763ZM11.5039 2.52433L11.5108 2.51763L11.4917 2.52431L11.5039 2.52433ZM11.5039 2.52433L11.2748 2.74672C13.8446 3.47594 15.088 4.61473 15.088 4.61473C13.4318 3.80287 11.9393 3.39694 10.4467 3.23286C9.36818 3.06879 8.28967 3.15508 7.37851 3.23286H7.13058C6.54793 3.23286 5.30826 3.47594 3.64711 4.12616C3.06818 4.37287 2.73595 4.53452 2.73595 4.53452C2.73595 4.53452 3.9781 3.31672 6.71529 2.6665L6.54793 2.50243C6.54793 2.50243 4.47521 2.42465 2.2376 4.04594C2.2376 4.04594 0 7.86704 0 12.5778C0 12.5778 1.23967 14.6925 4.64008 14.7727C4.64008 14.7727 5.13595 14.1249 5.63802 13.5549C3.72893 12.9861 2.98512 11.8486 2.98512 11.8486C2.98512 11.8486 3.15124 11.9288 3.40041 12.0916H3.47479C3.50979 12.0916 3.52722 12.1078 3.54568 12.1249C3.54684 12.1259 3.548 12.127 3.54917 12.1281V12.1354C3.56901 12.1548 3.58636 12.1719 3.62355 12.1719C3.6596 12.1864 3.69564 12.201 3.73164 12.2155C4.10416 12.3658 4.47123 12.5139 4.77645 12.658C5.35413 12.9035 6.09669 13.1478 7.00785 13.3094C8.16074 13.4735 9.48223 13.5525 10.9872 13.3094L11.0353 13.2988C11.7631 13.1384 12.4908 12.9779 13.2186 12.6592C13.3516 12.5923 13.4931 12.5255 13.6419 12.4551C14.0339 12.2698 14.4769 12.0604 14.9504 11.7635C14.9504 11.7635 14.2066 12.9011 12.2169 13.4699C12.626 14.0362 13.2025 14.6852 13.2025 14.6852C15.9898 14.6255 17.3804 13.1948 17.8328 12.7295C17.9325 12.6269 17.9866 12.5713 18 12.5875C18 7.88405 15.75 4.05566 15.75 4.05566C13.7464 2.59718 11.8701 2.52578 11.5039 2.52433ZM6.13886 7.86701C7.00663 7.86701 7.70828 8.59623 7.70828 9.48952C7.70828 10.3889 7.00167 11.1181 6.1339 11.1181C5.26613 11.1181 4.55952 10.3889 4.55952 9.49682C4.55952 8.59745 5.26613 7.87066 6.1339 7.87066L6.13886 7.86701ZM11.7707 7.86701C12.6422 7.86701 13.3451 8.59623 13.3451 9.48952C13.3451 10.3889 12.6384 11.1181 11.7707 11.1181C10.9029 11.1181 10.1963 10.3889 10.1963 9.49682C10.1988 8.59745 10.9066 7.87066 11.7707 7.87066V7.86701Z" fill="black"/>
</svg>
