<svg width="16" height="16" viewBox="0 0 16 16" fill="none" xmlns="http://www.w3.org/2000/svg">
<path fill-rule="evenodd" clip-rule="evenodd" d="M8 0C5.82666 0 5.55534 0.01 4.702 0.048C3.85 0.088 3.27 0.222 2.76 0.42C2.234 0.624 1.78734 0.898 1.34266 1.34266C0.898 1.78734 0.623334 2.23334 0.42 2.76C0.222 3.27 0.0873334 3.85 0.048 4.702C0.008 5.55534 0 5.82666 0 8C0 10.1733 0.01 10.4447 0.048 11.298C0.088 12.1494 0.222 12.7301 0.42 13.24C0.624 13.7654 0.898 14.2127 1.34266 14.6574C1.78734 15.1014 2.23334 15.3767 2.76 15.58C3.27066 15.7774 3.85066 15.9127 4.702 15.952C5.55534 15.992 5.82666 16 8 16C10.1733 16 10.4447 15.9899 11.298 15.952C12.1494 15.912 12.7301 15.7774 13.24 15.58C13.7654 15.376 14.2127 15.1014 14.6574 14.6574C15.1014 14.2127 15.3767 13.7673 15.58 13.24C15.7774 12.7301 15.9127 12.1494 15.952 11.298C15.992 10.4447 16 10.1733 16 8C16 5.82666 15.9899 5.55534 15.952 4.702C15.912 3.85066 15.7774 3.26934 15.58 2.76C15.376 2.234 15.1014 1.78734 14.6574 1.34266C14.2127 0.898 13.7673 0.623334 13.24 0.42C12.7301 0.222 12.1494 0.0873334 11.298 0.048C10.4447 0.008 10.1733 0 8 0ZM12.2707 4.68997C12.8 4.68997 13.2307 4.25997 13.2307 3.72997C13.2307 3.20063 12.7993 2.76997 12.2707 2.77063C11.7414 2.77063 11.3107 3.20063 11.3107 3.72997C11.3107 4.2593 11.7407 4.68997 12.2707 4.68997ZM3.89202 7.99997C3.89202 5.73197 5.73002 3.89197 8.00002 3.89197C10.268 3.89197 12.108 5.72997 12.108 7.99997C12.108 10.268 10.27 12.108 8.00002 12.108C5.73202 12.108 3.89202 10.27 3.89202 7.99997ZM8.00002 10.6667C6.5267 10.6667 5.33336 9.47337 5.33336 8.00005C5.33336 6.52671 6.5267 5.33337 8.00002 5.33337C9.47336 5.33337 10.6667 6.52671 10.6667 8.00005C10.6667 9.47337 9.47336 10.6667 8.00002 10.6667Z" fill="black"/>
</svg>
