<svg width="48" height="48" viewBox="0 0 48 48" fill="none" xmlns="http://www.w3.org/2000/svg">
<circle cx="24" cy="24" r="24" fill="white"/>
<path d="M24 40C32.8366 40 40 32.8366 40 24C40 15.1634 32.8366 8 24 8C15.1634 8 8 15.1634 8 24C8 32.8366 15.1634 40 24 40Z" fill="#673BB7"/>
<path d="M31 18.7666C30.2003 17.1256 28.5794 16 26.7254 16H21.2746C19.417 16 17.7997 17.1256 17 18.7666L24 23L31 18.7666Z" fill="white"/>
<path d="M24.4724 25.1425C24.3276 25.2233 24.1638 25.2637 24 25.2637C23.8362 25.2637 23.6724 25.2233 23.5276 25.1425L16.019 21C16.0076 21.1396 16 21.2828 16 21.426V26.079C16 28.7855 18.2971 31 21.1048 31H26.8952C29.7029 31 32 28.7855 32 26.079V21.426C32 21.2828 31.9924 21.1396 31.981 21L24.4724 25.1425Z" fill="white"/>
</svg>
