<svg width="18" height="19" viewBox="0 0 18 19" fill="none" xmlns="http://www.w3.org/2000/svg">
<path fill-rule="evenodd" clip-rule="evenodd" d="M8.99944 0C6.55645 4.32888e-06 6.24963 0.0112901 5.28981 0.0573958C4.33167 0.103708 3.67766 0.263823 3.10541 0.49875C2.51346 0.741396 2.01133 1.06598 1.51108 1.59422C1.01045 2.12226 0.702945 2.65228 0.472317 3.27691C0.24919 3.88115 0.0973135 4.57168 0.0541881 5.58263C0.0112501 6.59597 0 6.91996 0 9.5C0 12.08 0.0108751 12.4028 0.0543756 13.4162C0.0984385 14.4275 0.250128 15.1179 0.472505 15.7219C0.70257 16.3467 1.01007 16.8767 1.51052 17.4048C2.01058 17.9332 2.51271 18.2586 3.10428 18.5012C3.67691 18.7362 4.33111 18.8963 5.28906 18.9426C6.24907 18.9887 6.55563 19 8.99972 19C11.4442 19 11.75 18.9887 12.71 18.9426C13.6681 18.8963 14.3229 18.7362 14.8955 18.5012C15.4873 18.2586 15.9887 17.9332 16.4887 17.4048C16.9894 16.8767 17.2969 16.3467 17.5275 15.7221C17.7487 15.1179 17.9006 14.4273 17.9456 13.4164C17.9888 12.403 18 12.08 18 9.5C18 6.91996 17.9888 6.59617 17.9456 5.58283C17.9006 4.57148 17.7487 3.88115 17.5275 3.2771C17.2969 2.65228 16.9894 2.12226 16.4887 1.59422C15.9881 1.06578 15.4875 0.741198 14.895 0.49875C14.3212 0.263823 13.6668 0.103708 12.7087 0.0573958C11.7489 0.0112901 11.4432 4.32888e-06 8.99944 0ZM8.19346 1.71198C8.35023 1.71172 8.51888 1.7118 8.70088 1.71188C8.79706 1.71193 8.89699 1.71198 9.00084 1.71198C11.4039 1.71198 11.6887 1.72108 12.6376 1.7666C13.5151 1.80895 13.9914 1.96373 14.3086 2.09376C14.7287 2.26594 15.0281 2.47178 15.3429 2.80428C15.6579 3.13678 15.8529 3.45344 16.0164 3.89678C16.1396 4.23126 16.2864 4.73396 16.3264 5.66021C16.3695 6.66167 16.3789 6.96251 16.3789 9.49782C16.3789 12.0331 16.3695 12.334 16.3264 13.3354C16.2862 14.2617 16.1396 14.7644 16.0164 15.0989C15.8533 15.5422 15.6579 15.8579 15.3429 16.1902C15.0279 16.5227 14.7288 16.7285 14.3086 16.9007C13.9918 17.0313 13.5151 17.1857 12.6376 17.228C11.6889 17.2736 11.4039 17.2835 9.00084 17.2835C6.59763 17.2835 6.31282 17.2736 5.36406 17.228C4.48655 17.1853 4.01029 17.0305 3.69285 16.9005C3.27285 16.7283 2.97284 16.5225 2.65784 16.19C2.34284 15.8575 2.14784 15.5416 1.98433 15.0981C1.86115 14.7636 1.71433 14.2609 1.67439 13.3346C1.63127 12.3332 1.62264 12.0323 1.62264 9.49544C1.62264 6.95855 1.63127 6.6593 1.67439 5.65784C1.71452 4.73159 1.86115 4.22888 1.98433 3.89401C2.14746 3.45067 2.34284 3.13401 2.65784 2.80151C2.97284 2.46901 3.27285 2.26317 3.69285 2.09059C4.01011 1.95997 4.48655 1.80559 5.36406 1.76304C6.19432 1.72345 6.51607 1.71158 8.19346 1.7096V1.71198ZM12.725 4.429C12.725 3.79942 13.2088 3.28939 13.805 3.28939V3.289C14.4013 3.289 14.885 3.79962 14.885 4.429C14.885 5.05837 14.4013 5.569 13.805 5.569C13.2088 5.569 12.725 5.05837 12.725 4.429ZM9.00075 4.62135C6.44833 4.6214 4.37892 6.80579 4.37892 9.5C4.37892 12.1942 6.44838 14.3777 9.00084 14.3777C11.5533 14.3777 13.622 12.1942 13.622 9.5C13.622 6.80579 11.5532 4.6214 9.00075 4.62135ZM12.0009 9.5C12.0009 7.75101 10.6576 6.33333 9.00084 6.33333C7.34389 6.33333 6.00081 7.75101 6.00081 9.5C6.00081 11.2488 7.34389 12.6667 9.00084 12.6667C10.6576 12.6667 12.0009 11.2488 12.0009 9.5Z" fill="#673BB7"/>
</svg>
