<svg width="48" height="48" viewBox="0 0 48 48" fill="none" xmlns="http://www.w3.org/2000/svg">
<circle cx="24" cy="24" r="24" fill="white"/>
<path fill-rule="evenodd" clip-rule="evenodd" d="M40 24C40 32.8366 32.8366 40 24 40C15.1634 40 8 32.8366 8 24C8 15.1634 15.1634 8 24 8C32.8366 8 40 15.1634 40 24ZM24.5734 19.8119C23.0172 20.4592 19.9069 21.7989 15.2425 23.8311C14.4851 24.1323 14.0884 24.427 14.0522 24.7151C13.9912 25.202 14.601 25.3937 15.4313 25.6548C15.5443 25.6903 15.6613 25.7271 15.7813 25.7661C16.5982 26.0317 17.6971 26.3424 18.2684 26.3547C18.7866 26.3659 19.365 26.1523 20.0035 25.7138C24.3616 22.772 26.6112 21.2851 26.7524 21.253C26.8521 21.2304 26.9902 21.202 27.0837 21.2851C27.1773 21.3683 27.1681 21.5258 27.1582 21.568C27.0977 21.8255 24.7042 24.0508 23.4655 25.2024C23.0794 25.5614 22.8055 25.816 22.7495 25.8742C22.624 26.0045 22.4962 26.1277 22.3733 26.2461C21.6144 26.9778 21.0452 27.5264 22.4048 28.4224C23.0582 28.8529 23.581 29.209 24.1026 29.5642C24.6722 29.9521 25.2404 30.339 25.9755 30.8209C26.1628 30.9437 26.3417 31.0712 26.5159 31.1954C27.1788 31.668 27.7744 32.0926 28.5101 32.0248C28.9377 31.9855 29.3793 31.5835 29.6036 30.3845C30.1336 27.5509 31.1755 21.4113 31.4163 18.8813C31.4374 18.6596 31.4109 18.376 31.3896 18.2514C31.3682 18.1269 31.3237 17.9495 31.1618 17.8181C30.9701 17.6626 30.6742 17.6298 30.5418 17.6321C29.9401 17.6427 29.0168 17.9638 24.5734 19.8119Z" fill="#673BB7"/>
</svg>
