<svg width="48" height="48" viewBox="0 0 48 48" fill="none" xmlns="http://www.w3.org/2000/svg">
<circle cx="24" cy="24" r="24" fill="white"/>
<path d="M18.3815 37C30.8312 37 37.6426 26.6112 37.6426 17.6048C37.6426 17.3128 37.6362 17.0142 37.6233 16.7222C38.9483 15.7573 40.0918 14.5621 41 13.1928C39.766 13.7457 38.4558 14.1068 37.1141 14.2637C38.5268 13.4111 39.5845 12.0716 40.0912 10.4936C38.7623 11.2867 37.3089 11.8461 35.7935 12.1479C34.7724 11.0554 33.4224 10.3321 31.9521 10.0897C30.4818 9.84731 28.9731 10.0994 27.6594 10.807C26.3456 11.5145 25.3 12.6382 24.684 14.0042C24.0681 15.3702 23.9162 16.9025 24.2519 18.3642C21.5609 18.2282 18.9284 17.5243 16.525 16.2981C14.1215 15.072 12.0008 13.3509 10.3003 11.2465C9.43605 12.7469 9.17158 14.5225 9.56067 16.2123C9.94976 17.9021 10.9632 19.3793 12.3951 20.3437C11.3201 20.3093 10.2687 20.0179 9.32773 19.4935V19.5779C9.32677 21.1525 9.86738 22.6789 10.8577 23.8976C11.848 25.1162 13.2268 25.952 14.7598 26.2627C13.7641 26.537 12.719 26.577 11.7054 26.3795C12.138 27.7337 12.9797 28.9182 14.1129 29.7675C15.2462 30.6169 16.6145 31.0888 18.027 31.1173C15.6291 33.014 12.667 34.0428 9.61777 34.0379C9.07702 34.0371 8.5368 34.0037 8 33.9379C11.0977 35.9391 14.7011 37.0019 18.3815 37Z" fill="#673BB7"/>
</svg>
